<svg xmlns="http://www.w3.org/2000/svg" viewBox="0 0 512 512" width="512" height="512" role="img" aria-label="@deck-shelves/api"
     style="shape-rendering:geometricPrecision; fill-rule:evenodd; clip-rule:evenodd">
  <style>
    .steam-blue { fill: #0080FF; }
    .steam-blue-dark { fill: #0044B0; }
    .steam-light { fill: #FFFFFF; }
    .steam-light-soft { fill: #D2D2D2; }
    .steam-stroke-dark { stroke: #000000; stroke-width: 2; stroke-linejoin: round; }
    .round { rx: 8; ry: 8; }
    .stroke-blue { stroke: #0080FF; fill: none; stroke-linecap: round; stroke-linejoin: round; }
    .stroke-blue-dark { stroke: #0044B0; fill: none; stroke-linecap: round; stroke-linejoin: round; }
  </style>
  <path d="M 80 0 C 40 0 40 40 40 70 C 40 95 28 106 0 106 C 28 106 40 117 40 142 C 40 172 40 212 80 212" class="stroke-blue" stroke-width="26" transform="translate(40,150) scale(1.0)"/>
  <g transform="translate(-91,-23) scale(0.442)">
  <g>
    <rect x="550" y="460" width="80" height="285" class="steam-blue steam-stroke-dark round"/>
    <rect x="551" y="500" width="79" height="25" class="steam-blue-dark"/>
    <rect x="645" y="500" width="75" height="245" class="steam-blue steam-stroke-dark round"/>
    <rect x="646" y="535" width="73" height="25" class="steam-blue-dark"/>
    <rect x="740" y="530" width="75" height="215" class="steam-light steam-stroke-dark round"/>
    <rect x="741" y="570" width="73" height="25" class="steam-light-soft"/>
    <rect x="840" y="470" width="75" height="275" class="steam-light steam-stroke-dark round"/>
    <rect x="841" y="505" width="73" height="25" class="steam-light-soft"/>
    <g transform="rotate(-15)">
      <rect x="750" y="750" width="60" height="225" class="steam-blue steam-stroke-dark round"/>
      <rect x="751" y="785" width="58" height="25" class="steam-blue-dark"/>
    </g>
    <rect x="500" y="750" width="570" height="25" class="steam-light steam-stroke-dark round"/>
    <rect x="530" y="780" width="25" height="25" class="steam-light steam-stroke-dark round"/>
    <rect x="1020" y="780" width="25" height="25" class="steam-light steam-stroke-dark round"/>
  </g>
  </g>
  <path d="M 0 0 C 40 0 40 40 40 70 C 40 95 52 106 80 106 C 52 106 40 117 40 142 C 40 172 40 212 0 212" class="stroke-blue" stroke-width="26" transform="translate(392,150) scale(1.0)"/>
</svg>
